<svg width="25" height="24" viewBox="0 0 25 24" fill="none" xmlns="http://www.w3.org/2000/svg">
<path d="M12.4499 22.8688C6.74293 22.8688 0.585938 19.2892 0.585938 11.4344C0.585938 3.57965 6.74293 0 12.4499 0C15.6205 0 18.5455 1.04321 20.7138 2.94554C23.0661 5.03196 24.3139 7.9775 24.3139 11.4344C24.3139 14.8913 23.0661 17.8164 20.7138 19.9028C18.5455 21.8052 15.6 22.8688 12.4499 22.8688Z" fill="url(#paint0_radial_16_762)"/>
<path d="M22.2459 4.63721C23.3361 6.39635 23.9048 8.49095 23.9048 10.8208C23.9048 14.2777 22.657 17.2028 20.3047 19.2892C18.1365 21.1915 15.1909 22.2552 12.0408 22.2552C8.34663 22.2552 4.46425 20.7518 2.18555 17.5628C4.38652 21.1752 8.52459 22.8689 12.4499 22.8689C15.6 22.8689 18.5456 21.8052 20.7138 19.9029C23.0661 17.8164 24.3139 14.8914 24.3139 11.4344C24.3139 8.82846 23.6041 6.51294 22.2459 4.63721Z" fill="#EB8F00"/>
<path d="M12.4499 22.8688C6.74293 22.8688 0.585938 19.2892 0.585938 11.4344C0.585938 3.57965 6.74293 0 12.4499 0C15.6205 0 18.5455 1.04321 20.7138 2.94554C23.0661 5.03196 24.3139 7.9775 24.3139 11.4344C24.3139 14.8913 23.0661 17.8164 20.7138 19.9028C18.5455 21.8052 15.6 22.8688 12.4499 22.8688Z" fill="url(#paint1_radial_16_762)"/>
<path d="M17.7969 14.7481C16.2996 14.2674 14.4811 14.0117 12.5317 14.0117C10.5517 14.0117 8.72094 14.292 7.19908 14.7788C6.62224 15.734 6.27246 16.8407 6.27246 18.0209C6.27246 19.0232 7.27476 19.6164 8.15433 19.2073C9.25891 18.6959 10.8749 18.1846 12.5317 18.1846C14.1886 18.1846 15.825 18.6959 16.9091 19.2073C17.7887 19.6164 18.791 19.0232 18.791 18.0209C18.791 16.8284 18.4085 15.7095 17.7969 14.7481Z" fill="#422B0D"/>
<path d="M17.797 14.7481C16.5615 12.8049 14.3912 12.314 12.5319 12.314C10.5109 12.314 8.37948 12.8192 7.19922 14.7788C8.72108 14.292 10.5518 14.0117 12.5319 14.0117C14.4792 14.0117 16.2997 14.2674 17.797 14.7481Z" fill="white"/>
<path d="M12.5195 12.0071C13.2355 12.0255 13.9575 12.0909 14.6591 12.273C15.3628 12.4448 16.046 12.7394 16.6453 13.1607C17.2385 13.5924 17.7376 14.1528 18.0792 14.791C18.427 15.419 18.6806 16.1002 18.8074 16.8059C18.8729 17.1577 18.9077 17.5156 18.9077 17.8736C18.9138 18.0454 18.8974 18.2479 18.8463 18.43C18.7931 18.6141 18.699 18.7839 18.5783 18.9311C18.337 19.2277 17.9688 19.4037 17.5944 19.4302C17.4083 19.4405 17.2201 19.4159 17.0442 19.3587C16.8662 19.2932 16.7169 19.2134 16.5574 19.1439C15.2892 18.5834 13.9166 18.2193 12.5195 18.1866C13.9187 18.1682 15.3137 18.4811 16.6187 19.0027C16.7824 19.0661 16.946 19.1459 17.0974 19.195C17.2549 19.24 17.4206 19.2543 17.5801 19.24C17.9013 19.2052 18.2081 19.0416 18.4004 18.788C18.4965 18.6611 18.5702 18.5179 18.607 18.3645C18.6438 18.207 18.652 18.0577 18.6418 17.8818C18.6274 17.5402 18.5824 17.2006 18.5088 16.8693C18.3636 16.2045 18.0997 15.5663 17.7499 14.9853C17.4063 14.4024 16.9358 13.9155 16.3855 13.5433C15.8271 13.1812 15.1971 12.9337 14.5385 12.7987C13.8818 12.6555 13.2007 12.6166 12.5195 12.6248V12.0071Z" fill="#EB8F00"/>
<path d="M12.571 12.6209C11.8919 12.6127 11.2087 12.6516 10.5521 12.7948C9.89343 12.9298 9.26341 13.1773 8.70498 13.5394C8.15474 13.9116 7.68427 14.3985 7.34063 14.9814C6.9888 15.5624 6.72697 16.1985 6.58174 16.8654C6.5081 17.1988 6.46106 17.5363 6.44878 17.8779C6.43651 18.0538 6.44674 18.2031 6.48356 18.3606C6.52242 18.514 6.59606 18.6572 6.69015 18.784C6.88243 19.0377 7.18926 19.2013 7.5104 19.2361C7.672 19.2504 7.83564 19.2361 7.99315 19.1911C8.14451 19.142 8.30815 19.0643 8.4718 18.9988C9.77479 18.4772 11.1719 18.1643 12.571 18.1827C11.1719 18.2154 9.79933 18.5795 8.53316 19.14C8.37361 19.2095 8.22429 19.2893 8.04633 19.3547C7.87041 19.412 7.68223 19.4366 7.49609 19.4263C7.1238 19.4018 6.75561 19.2238 6.51219 18.9272C6.39151 18.78 6.29741 18.6102 6.24423 18.4261C6.19309 18.2461 6.17673 18.0436 6.18287 17.8697C6.18491 17.5117 6.21969 17.1558 6.2831 16.8019C6.41196 16.0962 6.66356 15.4151 7.0113 14.7871C7.35494 14.151 7.85405 13.5884 8.4452 13.1568C9.04454 12.7355 9.72774 12.4389 10.4314 12.2691C11.1351 12.0891 11.8571 12.0216 12.571 12.0032V12.6209Z" fill="#EB8F00"/>
<path d="M22.2459 4.63721C23.3361 6.39635 23.9048 8.49095 23.9048 10.8208C23.9048 14.2777 22.657 17.2028 20.3047 19.2892C18.1365 21.1915 15.1909 22.2552 12.0408 22.2552C8.34663 22.2552 4.46425 20.7518 2.18555 17.5628C4.38652 21.1752 8.52459 22.8689 12.4499 22.8689C15.6 22.8689 18.5456 21.8052 20.7138 19.9029C23.0661 17.8164 24.3139 14.8914 24.3139 11.4344C24.3139 8.82846 23.6041 6.51294 22.2459 4.63721Z" fill="#EB8F00"/>
<path d="M3.97958 7.95906C3.87322 7.97747 3.76276 7.9611 3.66866 7.9161C3.48252 7.8261 3.34138 7.60723 3.44775 7.32086C3.83844 6.31037 4.64642 5.46353 5.66508 4.99306C6.0435 4.81715 6.44033 4.70056 6.84739 4.64533C7.15217 4.61055 7.33013 4.79669 7.37309 4.99511C7.42013 5.21602 7.3199 5.48603 7.03353 5.58013L7.00899 5.58831C5.90646 5.96877 4.92256 6.74811 4.313 7.72382C4.22913 7.86292 4.1064 7.93656 3.97958 7.95906Z" fill="#422B0D"/>
<path d="M20.6178 7.72386C20.0082 6.74815 19.0243 5.96881 17.9218 5.58835L17.8973 5.58016C17.6109 5.48812 17.5086 5.21606 17.5577 4.99515C17.6007 4.79469 17.7807 4.61059 18.0834 4.64536C18.4884 4.69855 18.8873 4.81719 19.2657 4.9931C20.2844 5.46357 21.0923 6.31041 21.483 7.3209C21.5894 7.60727 21.4483 7.82614 21.2621 7.91614C21.1701 7.96114 21.0596 7.9775 20.9512 7.95909C20.8244 7.93659 20.7017 7.86296 20.6178 7.72386Z" fill="#422B0D"/>
<path d="M22.2966 21.2734C22.2966 20.6455 21.1613 20.1238 19.7356 20.0911L19.2958 9.34195C19.2529 9.30923 19.2099 9.27036 19.1751 9.22741C19.1751 9.22741 19.1629 9.21104 19.1383 9.1824C19.1261 9.16809 19.1117 9.14968 19.0954 9.12718C19.077 9.10467 19.0586 9.08013 19.0422 9.06786C19.0074 9.03308 18.9645 8.99013 18.9154 8.94103C18.8642 8.8899 18.8029 8.83467 18.7395 8.77944C18.6085 8.66898 18.4531 8.5667 18.2894 8.49511C18.1258 8.42761 17.9601 8.3867 17.7903 8.38875H17.7637L17.7044 8.39079C17.6512 8.39079 17.6615 8.39488 17.6451 8.39693C17.6308 8.39488 17.5735 8.4092 17.5346 8.41534C17.4528 8.43579 17.3669 8.46034 17.2851 8.49511C17.1215 8.5667 16.2439 8.60557 16.1867 8.64034L16.0926 21.1691C15.1659 21.4493 14.1514 21.9198 14.1514 22.4455C14.1514 23.3026 15.753 24.0001 17.729 24.0001C19.7049 24.0001 21.3066 23.3067 21.3066 22.4496C21.3066 22.3637 21.2861 22.2819 21.2554 22.2C21.8895 21.9832 22.2966 21.6498 22.2966 21.2734Z" fill="#29B6F6"/>
<path d="M17.1093 20.4285C17.1278 21.0932 16.7268 21.6946 16.1091 21.9421C15.3584 22.2428 14.6425 22.6662 15.7143 22.9199C15.7143 22.9199 16.5223 23.3167 16.9334 23.1101C17.1175 23.0181 17.0541 22.8667 16.9273 22.7297C16.7882 22.5803 16.8578 22.339 17.0562 22.294L17.2321 22.2551C17.678 22.1569 17.991 21.7539 17.9787 21.2978L17.6494 7.8731L16.9764 7.81787L17.1093 20.4285Z" fill="#81D4FA"/>
<path d="M9.02963 21.169L8.93758 8.66474C8.83735 8.61974 8.66553 9.21089 8.64098 9.18021C8.62871 9.16589 8.61439 9.14748 8.59803 9.12498C8.57962 9.10248 8.56121 9.07793 8.54484 9.06566C8.51007 9.03088 8.46711 8.98793 8.41802 8.93884C8.36688 8.8877 8.30552 8.83247 8.24211 8.77724C8.1112 8.66678 7.95574 8.56451 7.7921 8.49291C7.62846 8.42541 7.46277 8.3845 7.29299 8.38655H7.2664L7.20708 8.38859C7.1539 8.38859 7.16412 8.39268 7.14776 8.39473C7.13344 8.39268 7.07617 8.407 7.0373 8.41314C6.95548 8.43359 6.86957 8.45814 6.78775 8.49291C6.62411 8.56451 6.46865 8.66678 6.33774 8.77724C6.20887 8.8877 6.10046 8.99611 6.02682 9.07793C5.95318 9.1618 5.91022 9.20884 5.91022 9.20884L5.84886 9.27839C5.84272 9.28453 5.83659 9.28862 5.83045 9.29476L5.38862 20.0889C3.96085 20.1217 2.82764 20.6392 2.82764 21.2671C2.82764 21.6435 3.23469 21.981 3.86676 22.1958C3.83607 22.2776 3.81562 22.3615 3.81562 22.4474C3.81562 23.3045 5.41726 23.9999 7.39322 23.9999C9.36919 23.9999 10.9708 23.3004 10.9708 22.4433C10.9708 21.9176 9.9542 21.4492 9.02963 21.169Z" fill="#29B6F6"/>
<path d="M6.65084 8.61988L6.29288 19.9234C6.28265 20.2527 6.0065 20.5104 5.67922 20.4961C5.25376 20.4777 4.67078 20.5268 4.19213 20.8234C3.9344 20.983 3.82803 21.39 4.06327 21.6171C4.321 21.8646 4.99602 21.6498 5.33353 21.615C5.48081 21.6007 5.67513 21.615 5.714 21.7582C5.7365 21.84 5.6874 21.928 5.6199 21.9771C5.5524 22.0282 5.46853 22.0487 5.38671 22.0732C5.25171 22.1121 5.11671 22.1591 5.01034 22.2512C4.90602 22.3432 4.83852 22.4905 4.87534 22.6255C4.92443 22.7994 5.11671 22.8832 5.28648 22.9426C5.58513 23.051 5.88991 23.1594 6.20696 23.1737C6.22537 22.9487 5.87559 22.7932 5.94514 22.5785C5.96968 22.5028 6.04128 22.4537 6.11287 22.4189C6.30515 22.3289 6.52402 22.3105 6.73062 22.2614C7.07017 22.1816 7.68382 22.0098 7.52427 21.5434C7.47109 21.39 7.36268 21.2652 7.27063 21.1302C6.92494 20.6189 6.85744 20.1688 6.9188 19.5552C6.9679 19.0765 7.09063 11.502 7.17245 8.38669C7.1929 7.64008 6.94949 8.32737 6.70607 8.34578C6.68561 8.37237 6.6713 8.59533 6.65084 8.61988Z" fill="#81D4FA"/>
<path d="M9.38188 9.70186L9.34097 9.66095C9.32051 9.6405 9.25915 9.57913 9.23869 9.55868C9.19778 9.51777 9.15687 9.49731 9.09551 9.43595C9.03414 9.39504 8.97278 9.33367 8.89096 9.29276C8.80913 9.25185 8.72731 9.19048 8.64549 9.14957C8.56367 9.10866 8.4614 9.06775 8.35912 9.02684C8.25685 8.98593 8.15457 8.96548 8.05229 8.94502C7.95002 8.92457 7.84774 8.92457 7.72501 8.92457H7.6841H7.62274C7.56137 8.92457 7.56137 8.92457 7.54092 8.92457C7.50001 8.92457 7.43864 8.94502 7.39773 8.94502C7.29546 8.96548 7.19318 8.98593 7.0909 9.02684C6.98863 9.06775 6.88635 9.08821 6.80453 9.14957C6.72271 9.19048 6.64089 9.2314 6.55907 9.29276C6.41588 9.39504 6.29315 9.49731 6.21133 9.55868C6.12951 9.6405 6.0886 9.68141 6.0886 9.68141L6.04769 9.72232C5.80223 9.96778 5.39313 9.96778 5.10676 9.76323C4.90221 9.59959 4.84084 9.31322 4.94312 9.10866L4.96357 9.0473C4.98403 9.00639 5.00448 8.94502 5.04539 8.88366C5.12721 8.74047 5.2704 8.53592 5.4954 8.31091C5.59768 8.20864 5.74087 8.08591 5.88405 7.98363C6.02724 7.88136 6.21133 7.77908 6.39543 7.69726C6.57953 7.61544 6.80453 7.53362 7.00908 7.49271C7.11136 7.47225 7.23409 7.4518 7.35682 7.43134C7.41819 7.43134 7.50001 7.41089 7.52046 7.41089H7.6841C7.90911 7.41089 8.13412 7.43134 8.35912 7.47225C8.58413 7.51316 8.78868 7.59498 8.97278 7.67681C9.15687 7.75863 9.34097 7.8609 9.48415 7.96318C9.64779 8.06545 9.77053 8.16773 9.8728 8.29046C9.97508 8.39273 10.0774 8.49501 10.1387 8.59729C10.1796 8.6382 10.2001 8.69956 10.241 8.74047C10.2614 8.78138 10.3024 8.82229 10.3228 8.8632C10.3842 8.94502 10.3842 8.98593 10.4046 9.02684C10.4251 9.06775 10.4251 9.06775 10.4251 9.06775C10.5683 9.37458 10.4046 9.72232 10.0569 9.84505C9.8728 9.94732 9.56597 9.88596 9.38188 9.70186Z" fill="#422B0D"/>
<path d="M18.9774 9.62818C18.9774 9.62818 18.9631 9.61387 18.9365 9.58727C18.914 9.56477 18.8629 9.5075 18.8322 9.485C18.7933 9.45227 18.7463 9.41341 18.6911 9.3684C18.6318 9.3234 18.5642 9.27431 18.4906 9.22317C18.4149 9.17613 18.3331 9.12703 18.2451 9.08408C18.1592 9.03703 18.0611 9.0043 17.9629 8.96748C17.8647 8.93271 17.7604 8.9143 17.656 8.8918C17.5517 8.87544 17.4433 8.86725 17.3349 8.86725H17.3635H17.3615H17.3574H17.3492H17.3329H17.3001L17.2367 8.8693C17.1835 8.8693 17.1753 8.87339 17.1549 8.87544C17.1222 8.87544 17.0628 8.88566 17.0117 8.89385C16.9074 8.91635 16.8031 8.93476 16.7049 8.96953C16.6087 9.00635 16.5106 9.03908 16.4246 9.08612C16.3367 9.13112 16.2549 9.17817 16.1792 9.22522C16.0319 9.3234 15.9112 9.42159 15.8314 9.49523C15.7496 9.56886 15.7026 9.61387 15.7026 9.61387L15.6514 9.665C15.4039 9.90433 14.9866 9.91865 14.7166 9.69978C14.5039 9.52591 14.4507 9.25795 14.5571 9.03499C14.5571 9.03499 14.5673 9.01453 14.5878 8.97362C14.6082 8.93476 14.6328 8.87339 14.6778 8.8018C14.7616 8.65657 14.9007 8.45201 15.1217 8.23724C15.2321 8.13087 15.361 8.01837 15.5144 7.91609C15.6637 7.80972 15.8376 7.71358 16.0299 7.62972C16.2221 7.5479 16.4308 7.47631 16.6517 7.4313C16.7642 7.41085 16.8685 7.39039 17.0056 7.37812C17.069 7.37198 17.1447 7.36585 17.1774 7.3638L17.3349 7.35767C17.566 7.36176 17.7951 7.3863 18.0181 7.42926C18.239 7.47426 18.4477 7.54585 18.6399 7.62767C18.8302 7.71154 19.0061 7.80768 19.1554 7.91404C19.3088 8.01632 19.4356 8.12678 19.5461 8.23519C19.6566 8.34156 19.7445 8.44792 19.8181 8.54406C19.8529 8.59316 19.8856 8.63816 19.9163 8.68111C19.945 8.72816 19.9736 8.77111 19.9961 8.80998C20.0513 8.89589 20.0554 8.92862 20.0759 8.96748C20.0902 9.00021 20.0984 9.01862 20.0984 9.01862C20.2354 9.3234 20.0697 9.66909 19.7281 9.79183C19.4602 9.88796 19.1595 9.81433 18.9774 9.62818Z" fill="#422B0D"/>
<defs>
<radialGradient id="paint0_radial_16_762" cx="0" cy="0" r="1" gradientUnits="userSpaceOnUse" gradientTransform="translate(12.4499 11.4344) scale(11.6512 11.6512)">
<stop offset="0.5" stop-color="#FDE030"/>
<stop offset="0.9188" stop-color="#F7C02B"/>
<stop offset="1" stop-color="#F4A223"/>
</radialGradient>
<radialGradient id="paint1_radial_16_762" cx="0" cy="0" r="1" gradientUnits="userSpaceOnUse" gradientTransform="translate(12.4499 11.4344) scale(11.6512 11.6512)">
<stop offset="0.5" stop-color="#FDE030"/>
<stop offset="0.9188" stop-color="#F7C02B"/>
<stop offset="1" stop-color="#F4A223"/>
</radialGradient>
</defs>
</svg>
