<svg width="26" height="24" viewBox="0 0 26 24" fill="none" xmlns="http://www.w3.org/2000/svg">
<path d="M13.15 24C7.16076 24 0.699219 20.2433 0.699219 12C0.699219 3.75671 7.16076 0 13.15 0C16.4774 0 19.5472 1.09481 21.8227 3.09123C24.2913 5.28086 25.6008 8.37209 25.6008 12C25.6008 15.6279 24.2913 18.6977 21.8227 20.8873C19.5472 22.8837 16.4559 24 13.15 24Z" fill="url(#paint0_radial_16_806)"/>
<path d="M8.94196 7.28589C8.0425 7.28589 7.22461 8.04582 7.22461 9.30807C7.22461 10.5703 8.0425 11.3281 8.94196 11.3281C9.84357 11.3281 10.6593 10.5682 10.6593 9.30807C10.6593 8.04796 9.85216 7.28589 8.94196 7.28589Z" fill="#422B0D"/>
<path d="M8.86717 8.1295C8.56234 7.98352 8.19526 8.11232 8.04713 8.41715C7.93336 8.65543 7.98488 8.94094 8.17593 9.12556C8.48076 9.27153 8.84785 9.14273 8.99597 8.8379C9.10975 8.59962 9.05822 8.31411 8.86717 8.1295Z" fill="#896024"/>
<path d="M17.1861 7.28589C16.2866 7.28589 15.4688 8.04582 15.4688 9.30807C15.4688 10.5703 16.2866 11.3281 17.1861 11.3281C18.0856 11.3281 18.9035 10.5682 18.9035 9.30807C18.9035 8.04796 18.0856 7.28589 17.1861 7.28589Z" fill="#422B0D"/>
<path d="M17.0996 8.1295C16.7948 7.98352 16.4277 8.11232 16.2796 8.41715C16.1658 8.65543 16.2173 8.94094 16.4084 9.12556C16.7132 9.27153 17.0803 9.14273 17.2284 8.8379C17.3422 8.59962 17.2906 8.31411 17.0996 8.1295Z" fill="#896024"/>
<path d="M13.021 18.163C11.0739 18.1781 9.21491 17.3602 7.91187 15.9133C7.81312 15.7995 7.78951 15.6385 7.85176 15.5011C7.91402 15.3616 8.05141 15.2714 8.20382 15.2693C8.27251 15.2693 8.34121 15.2886 8.40132 15.323C9.43602 15.9176 11.1663 16.656 13.021 16.656H13.051C14.9036 16.656 16.636 15.9176 17.6686 15.323C17.7287 15.2886 17.7974 15.2693 17.8661 15.2693C18.0185 15.2714 18.1559 15.3616 18.2181 15.5011C18.2825 15.6385 18.2589 15.7995 18.158 15.9133C16.855 17.3602 14.9917 18.1802 13.0446 18.163" fill="#422B0D"/>
<path d="M23.4305 4.86646C24.5747 6.71261 25.1715 8.91082 25.1715 11.3559C25.1715 14.9838 23.862 18.0536 21.3933 20.2432C19.1178 22.2396 16.0266 23.3559 12.7207 23.3559C8.84376 23.3559 4.77793 21.7781 2.37793 18.4314C4.68777 22.2224 9.03267 23.9999 13.15 23.9999C16.4559 23.9999 19.5472 22.8836 21.8226 20.8872C24.2913 18.6976 25.6008 15.6278 25.6008 11.9999C25.6008 9.26502 24.8559 6.83497 23.4305 4.86646Z" fill="#EB8F00"/>
<defs>
<radialGradient id="paint0_radial_16_806" cx="0" cy="0" r="1" gradientUnits="userSpaceOnUse" gradientTransform="translate(13.15 12) scale(12.2275 12.2275)">
<stop offset="0.5" stop-color="#FDE030"/>
<stop offset="0.92" stop-color="#F7C02B"/>
<stop offset="1" stop-color="#F4A223"/>
</radialGradient>
</defs>
</svg>
