<svg width="26" height="24" viewBox="0 0 26 24" fill="none" xmlns="http://www.w3.org/2000/svg">
<path d="M13.3502 24C7.36095 24 0.899414 20.2433 0.899414 12C0.899414 3.75671 7.36095 0 13.3502 0C16.6776 0 19.7474 1.09481 22.0228 3.09123C24.4915 5.28086 25.801 8.37209 25.801 12C25.801 15.6279 24.4915 18.6977 22.0228 20.8873C19.7474 22.8837 16.6561 24 13.3502 24Z" fill="url(#paint0_radial_16_785)"/>
<path d="M23.6307 4.8667C24.7749 6.71285 25.3717 8.91106 25.3717 11.3561C25.3717 14.9841 24.0622 18.0538 21.5935 20.2434C19.318 22.2399 16.2268 23.3561 12.9209 23.3561C9.04396 23.3561 4.97812 21.7783 2.57812 18.4316C4.88796 22.2227 9.23286 24.0002 13.3502 24.0002C16.6561 24.0002 19.7474 22.8839 22.0228 20.8875C24.4915 18.6978 25.801 15.6281 25.801 12.0002C25.801 9.26527 25.0561 6.83521 23.6307 4.8667Z" fill="#EB8F00"/>
<path d="M13.4145 16.1001C11.1604 16.1001 9.55042 17.4525 9.07814 18.2039C8.89782 18.4443 8.85704 18.762 8.97081 19.0411C9.06097 19.2192 9.24559 19.3266 9.44308 19.3201C9.51607 19.3158 9.58906 19.3008 9.65775 19.2772C10.7955 18.9123 11.783 18.3971 13.4145 18.3971C15.0459 18.3971 16.0334 18.9337 17.1712 19.2772C17.2399 19.3008 17.3128 19.3158 17.3858 19.3201C17.5833 19.3266 17.7679 19.2192 17.8581 19.0411C17.9826 18.7641 17.9397 18.44 17.7508 18.2039C17.2785 17.4525 15.6685 16.1001 13.4145 16.1001Z" fill="#422B0D"/>
<path d="M9.14313 9.21777C8.24367 9.21777 7.42578 9.9777 7.42578 11.24C7.42578 12.5022 8.24367 13.26 9.14313 13.26C10.0447 13.26 10.8605 12.5001 10.8605 11.24C10.8605 9.97985 10.0533 9.21777 9.14313 9.21777Z" fill="#422B0D"/>
<path d="M9.06736 10.0616C8.76253 9.91565 8.39545 10.0445 8.24733 10.3493C8.13355 10.5876 8.18507 10.8731 8.37613 11.0577C8.68096 11.2037 9.04804 11.0749 9.19617 10.77C9.30994 10.5317 9.25842 10.2462 9.06736 10.0616Z" fill="#896024"/>
<path d="M17.3863 9.21777C16.4868 9.21777 15.6689 9.9777 15.6689 11.24C15.6689 12.5022 16.4868 13.26 17.3863 13.26C18.2858 13.26 19.1036 12.5001 19.1036 11.24C19.1036 9.97985 18.2858 9.21777 17.3863 9.21777Z" fill="#422B0D"/>
<path d="M17.2998 10.0616C16.995 9.91565 16.6279 10.0445 16.4798 10.3493C16.366 10.5876 16.4175 10.8731 16.6086 11.0577C16.9134 11.2037 17.2805 11.0749 17.4286 10.77C17.5424 10.5317 17.4908 10.2462 17.2998 10.0616Z" fill="#896024"/>
<path d="M5.5793 5.96783C5.10703 6.0537 5.08556 6.74064 5.60076 6.76211C6.73851 6.77714 7.83762 6.35424 8.67053 5.58143C8.98824 5.30665 9.25658 4.98036 9.46481 4.61542C9.58931 4.43724 9.54638 4.19252 9.36821 4.06801C9.19003 3.94351 8.94531 3.98644 8.8208 4.16461L8.79933 4.18608C7.95783 5.12633 6.82223 5.75531 5.5793 5.96783Z" fill="#422B0D"/>
<path d="M17.8373 4.16461C17.7128 3.98644 17.468 3.94351 17.2899 4.06801C17.1117 4.19252 17.0688 4.43724 17.1933 4.61542C17.4015 4.98036 17.6698 5.30665 17.9875 5.58143C18.8247 6.3478 19.9217 6.7707 21.0573 6.76211C21.594 6.74064 21.551 6.0537 21.0788 5.96783C19.8208 5.76175 18.6766 5.12419 17.8373 4.16461Z" fill="#422B0D"/>
<defs>
<radialGradient id="paint0_radial_16_785" cx="0" cy="0" r="1" gradientUnits="userSpaceOnUse" gradientTransform="translate(13.3502 12) scale(12.2275 12.2275)">
<stop offset="0.5" stop-color="#FDE030"/>
<stop offset="0.92" stop-color="#F7C02B"/>
<stop offset="1" stop-color="#F4A223"/>
</radialGradient>
</defs>
</svg>
