<svg width="26" height="24" viewBox="0 0 26 24" fill="none" xmlns="http://www.w3.org/2000/svg">
<path d="M13.2496 24C7.26037 24 0.798828 20.2433 0.798828 12C0.798828 3.75671 7.26037 0 13.2496 0C16.577 0 19.6468 1.09481 21.9223 3.09123C24.391 5.28086 25.7004 8.37209 25.7004 12C25.7004 15.6279 24.391 18.6977 21.9223 20.8873C19.6468 22.8837 16.5555 24 13.2496 24Z" fill="url(#paint0_radial_16_797)"/>
<path d="M23.5301 4.86646C24.6743 6.71261 25.2711 8.91082 25.2711 11.3559C25.2711 14.9838 23.9616 18.0536 21.4929 20.2432C19.2174 22.2396 16.1262 23.3559 12.8203 23.3559C8.94337 23.3559 4.87754 21.7781 2.47754 18.4314C4.78738 22.2224 9.13228 23.9999 13.2496 23.9999C16.5555 23.9999 19.6468 22.8836 21.9223 20.8872C24.391 18.6976 25.7004 15.6278 25.7004 11.9999C25.7004 9.26502 24.9555 6.83497 23.5301 4.86646Z" fill="#EB8F00"/>
<path d="M18.7025 17.3883H7.96903C7.49461 17.3883 7.11035 17.004 7.11035 16.5296C7.11035 16.0552 7.49461 15.6709 7.96903 15.6709H18.7025C19.1769 15.6709 19.5612 16.0552 19.5612 16.5296C19.5612 17.004 19.1769 17.3883 18.7025 17.3883Z" fill="#422B0D"/>
<path d="M9.1861 8.35913C8.28664 8.35913 7.46875 9.11906 7.46875 10.3813C7.46875 11.6436 8.28664 12.4013 9.1861 12.4013C10.0856 12.4013 10.9035 11.6414 10.9035 10.3813C10.9035 9.12121 10.0856 8.35913 9.1861 8.35913Z" fill="#422B0D"/>
<path d="M9.10252 9.20298C8.79769 9.05701 8.43061 9.18581 8.28249 9.49064C8.16871 9.72892 8.22023 10.0144 8.41129 10.199C8.71612 10.345 9.0832 10.2162 9.23132 9.91139C9.3451 9.67311 9.29358 9.3876 9.10252 9.20298Z" fill="#896024"/>
<path d="M17.4146 8.35913C16.5152 8.35913 15.6973 9.11906 15.6973 10.3813C15.6973 11.6436 16.5152 12.4013 17.4146 12.4013C18.3141 12.4013 19.132 11.6414 19.132 10.3813C19.132 9.12121 18.3184 8.35913 17.4146 8.35913Z" fill="#422B0D"/>
<path d="M17.3349 9.20298C17.0301 9.05701 16.663 9.18581 16.5149 9.49064C16.4011 9.72892 16.4527 10.0144 16.6437 10.199C16.9485 10.345 17.3156 10.2162 17.4637 9.91139C17.5775 9.67311 17.526 9.3876 17.3349 9.20298Z" fill="#896024"/>
<defs>
<radialGradient id="paint0_radial_16_797" cx="0" cy="0" r="1" gradientUnits="userSpaceOnUse" gradientTransform="translate(13.2496 12) scale(12.2275 12.2275)">
<stop offset="0.5" stop-color="#FDE030"/>
<stop offset="0.92" stop-color="#F7C02B"/>
<stop offset="1" stop-color="#F4A223"/>
</radialGradient>
</defs>
</svg>
