<svg width="26" height="24" viewBox="0 0 26 24" fill="none" xmlns="http://www.w3.org/2000/svg">
<path d="M13.0084 24C7.01916 24 0.557617 20.2433 0.557617 12C0.557617 3.75671 7.01916 0 13.0084 0C16.3358 0 19.4056 1.09481 21.6811 3.09123C24.1497 5.28086 25.4592 8.37209 25.4592 12C25.4592 15.6279 24.1497 18.6977 21.6811 20.8873C19.4013 22.8837 16.3143 24 13.0084 24Z" fill="url(#paint0_radial_16_815)"/>
<path d="M8.88239 7.28589C7.98293 7.28589 7.16504 8.04582 7.16504 9.30807C7.16504 10.5703 7.98293 11.3281 8.88239 11.3281C9.784 11.3281 10.5997 10.5682 10.5997 9.30807C10.5997 8.04796 9.79259 7.28589 8.88239 7.28589Z" fill="#422B0D"/>
<path d="M8.8076 8.1295C8.50277 7.98352 8.13569 8.11232 7.98756 8.41715C7.87379 8.65543 7.92531 8.94094 8.11636 9.12556C8.42119 9.27153 8.78828 9.14273 8.9364 8.8379C9.05017 8.59962 8.99865 8.31411 8.8076 8.1295Z" fill="#896024"/>
<path d="M17.1256 7.28589C16.2261 7.28589 15.4082 8.04582 15.4082 9.30807C15.4082 10.5703 16.2261 11.3281 17.1256 11.3281C18.025 11.3281 18.8429 10.5682 18.8429 9.30807C18.8429 8.04796 18.025 7.28589 17.1256 7.28589Z" fill="#422B0D"/>
<path d="M17.04 8.1295C16.7352 7.98352 16.3681 8.11232 16.22 8.41715C16.1062 8.65543 16.1577 8.94094 16.3488 9.12556C16.6536 9.27153 17.0207 9.14273 17.1688 8.8379C17.2826 8.59962 17.2311 8.31411 17.04 8.1295Z" fill="#896024"/>
<path d="M23.371 4.86646C24.5151 6.71261 25.1119 8.91082 25.1119 11.3559C25.1119 14.9838 23.8024 18.0536 21.3337 20.2432C19.0583 22.2396 15.967 23.3559 12.6611 23.3559C8.78419 23.3559 4.71836 21.7781 2.31836 18.4314C4.6282 22.2224 8.9731 23.9999 13.0905 23.9999C16.3964 23.9999 19.4876 22.8836 21.7631 20.8872C24.2318 18.6976 25.5413 15.6278 25.5413 11.9999C25.5413 9.26502 24.7964 6.83497 23.371 4.86646Z" fill="#EB8F00"/>
<path d="M21.3481 13.8719C21.0476 13.3288 20.395 13.0905 19.8154 13.3095C17.6129 13.9514 15.3288 14.2712 13.034 14.2605C10.7392 14.2712 8.4551 13.9514 6.2526 13.3095C5.67514 13.0905 5.02255 13.3267 4.72201 13.8677C4.43006 14.4065 4.64043 15.0312 4.8873 15.57C6.26548 18.5968 9.30304 20.4086 13.0168 20.4194H13.0512C16.7649 20.4194 19.8025 18.5968 21.1828 15.57C21.4276 15.0269 21.6401 14.4108 21.3481 13.8719Z" fill="#422B0D"/>
<path d="M16.4709 19.565C16.3915 19.492 16.3099 19.4254 16.2284 19.3503C15.3525 18.5796 14.2191 18.1653 13.0513 18.1889C11.8491 18.1696 10.6792 18.5689 9.74106 19.3203C9.65949 19.3868 9.57362 19.4512 9.49419 19.5349C9.41477 19.6186 9.37183 19.6787 9.32031 19.7496C10.501 20.2111 11.759 20.4473 13.0276 20.4408H13.062C14.277 20.4408 15.4813 20.224 16.6191 19.7968C16.5761 19.7152 16.5268 19.638 16.4709 19.565Z" fill="#ED7770"/>
<path d="M19.8152 13.3094C17.6127 13.9513 15.3286 14.2712 13.0338 14.2604C10.739 14.2712 8.45489 13.9513 6.25238 13.3094C5.67493 13.0905 5.02233 13.3266 4.72179 13.8676C4.67886 13.9492 4.64451 14.035 4.62305 14.123C4.69389 14.1595 4.77546 14.196 4.87206 14.2347C7.45668 15.5291 10.3139 16.186 13.2034 16.1517C15.9747 16.1839 18.7139 15.5806 21.217 14.3914C21.3179 14.3484 21.4016 14.3077 21.4767 14.269C21.4595 14.1295 21.4145 13.9921 21.3479 13.8676C21.0474 13.3266 20.3948 13.0883 19.8152 13.3094Z" fill="white"/>
<path d="M21.3567 13.8741C21.0519 13.331 20.3971 13.0905 19.8132 13.3095C17.6107 13.9514 15.3267 14.2712 13.034 14.2605C10.7392 14.2712 8.4551 13.9514 6.2526 13.3095C5.67514 13.0905 5.02255 13.3267 4.72201 13.8677C4.43006 14.4065 4.64043 15.0312 4.8873 15.57C4.99678 15.8126 5.11915 16.0508 5.25439 16.2805C5.25439 16.2805 4.80358 14.6104 5.19428 14.1253C5.32737 13.9192 5.55063 13.7904 5.79535 13.7775C5.89625 13.7775 5.995 13.7947 6.0916 13.8247C8.33274 14.4838 10.6576 14.8165 12.9954 14.8122H13.0705C15.4082 14.8165 17.7331 14.4838 19.9742 13.8247C20.0708 13.7947 20.1696 13.7775 20.2705 13.7775C20.5152 13.7904 20.7406 13.9192 20.8737 14.1253C21.2708 14.6104 20.8136 16.287 20.8136 16.287C20.9467 16.0573 21.0798 15.8211 21.1914 15.5764C21.4361 15.0376 21.6487 14.4151 21.3567 13.8741Z" fill="#EB8F00"/>
<defs>
<radialGradient id="paint0_radial_16_815" cx="0" cy="0" r="1" gradientUnits="userSpaceOnUse" gradientTransform="translate(13.0084 12) scale(12.2275 12.2275)">
<stop offset="0.5" stop-color="#FDE030"/>
<stop offset="0.92" stop-color="#F7C02B"/>
<stop offset="1" stop-color="#F4A223"/>
</radialGradient>
</defs>
</svg>
