<svg width="789" height="139" viewBox="0 0 789 139" fill="none" xmlns="http://www.w3.org/2000/svg">
<path d="M0.862915 136V26.9091H29.6981V46.1562H30.9766C33.2493 39.7642 37.0372 34.7216 42.3402 31.0284C47.6432 27.3352 53.9879 25.4886 61.3743 25.4886C68.8553 25.4886 75.2237 27.3589 80.4794 31.0994C85.7351 34.7926 89.2389 39.8115 90.9908 46.1562H92.1271C94.3525 39.9062 98.3771 34.911 104.201 31.1704C110.072 27.3826 117.009 25.4886 125.011 25.4886C135.191 25.4886 143.453 28.732 149.798 35.2187C156.19 41.6581 159.386 50.7964 159.386 62.6335V136H129.201V68.5994C129.201 62.5388 127.591 57.9933 124.371 54.963C121.152 51.9327 117.127 50.4176 112.298 50.4176C106.805 50.4176 102.52 52.1695 99.4425 55.6733C96.3648 59.1297 94.826 63.6988 94.826 69.3807V136H65.4936V67.9602C65.4936 62.6098 63.9548 58.3485 60.8771 55.1761C57.8468 52.0038 53.8459 50.4176 48.8743 50.4176C45.5125 50.4176 42.4822 51.2699 39.7834 52.9744C37.1319 54.6316 35.0248 56.9754 33.4623 60.0057C31.8998 62.9886 31.1186 66.4924 31.1186 70.517V136H0.862915Z" fill="#EE28FF"/>
<path d="M214.393 138.06C207.433 138.06 201.23 136.852 195.785 134.437C190.34 131.975 186.031 128.353 182.859 123.571C179.734 118.741 178.171 112.728 178.171 105.531C178.171 99.4706 179.284 94.3807 181.509 90.2613C183.735 86.142 186.765 82.8276 190.6 80.3182C194.435 77.8087 198.791 75.9148 203.668 74.6363C208.593 73.3579 213.754 72.4583 219.151 71.9375C225.496 71.2746 230.61 70.6591 234.492 70.0909C238.375 69.4754 241.192 68.5757 242.944 67.392C244.696 66.2083 245.572 64.4564 245.572 62.1363V61.7102C245.572 57.2121 244.151 53.732 241.31 51.2699C238.517 48.8077 234.54 47.5767 229.379 47.5767C223.933 47.5767 219.601 48.7841 216.381 51.1988C213.162 53.5663 211.031 56.5492 209.989 60.1477L182.006 57.875C183.427 51.2462 186.22 45.517 190.387 40.6875C194.554 35.8106 199.928 32.07 206.509 29.4659C213.138 26.8144 220.808 25.4886 229.521 25.4886C235.581 25.4886 241.381 26.1988 246.921 27.6193C252.508 29.0398 257.456 31.2415 261.765 34.2244C266.121 37.2074 269.554 41.0426 272.063 45.7301C274.573 50.3702 275.827 55.9337 275.827 62.4204V136H247.134V120.872H246.282C244.53 124.281 242.186 127.288 239.251 129.892C236.315 132.449 232.788 134.461 228.668 135.929C224.549 137.349 219.79 138.06 214.393 138.06ZM223.058 117.179C227.508 117.179 231.438 116.303 234.847 114.551C238.256 112.752 240.932 110.337 242.873 107.307C244.814 104.276 245.785 100.844 245.785 97.0085V85.4318C244.838 86.0473 243.536 86.6155 241.879 87.1363C240.269 87.6098 238.446 88.0596 236.41 88.4858C234.374 88.8646 232.338 89.2197 230.302 89.5511C228.266 89.8352 226.419 90.0956 224.762 90.3324C221.211 90.8532 218.11 91.6818 215.458 92.8182C212.807 93.9545 210.747 95.4933 209.279 97.4346C207.811 99.3286 207.077 101.696 207.077 104.537C207.077 108.656 208.569 111.805 211.552 113.983C214.582 116.114 218.417 117.179 223.058 117.179Z" fill="#EE28FF"/>
<path d="M349.016 138.131C337.795 138.131 328.136 135.858 320.039 131.312C311.99 126.72 305.787 120.233 301.431 111.852C297.075 103.424 294.897 93.4574 294.897 81.9517C294.897 70.7301 297.075 60.8816 301.431 52.4062C305.787 43.9309 311.919 37.3257 319.826 32.5909C327.781 27.856 337.108 25.4886 347.809 25.4886C355.006 25.4886 361.706 26.6487 367.908 28.9687C374.158 31.2415 379.603 34.6742 384.244 39.267C388.931 43.8598 392.577 49.6363 395.181 56.5966C397.785 63.5094 399.087 71.606 399.087 80.8863V89.196H306.971V70.446H370.607C370.607 66.0899 369.66 62.231 367.766 58.8693C365.872 55.5076 363.245 52.8797 359.883 50.9858C356.568 49.0445 352.709 48.0738 348.306 48.0738C343.713 48.0738 339.641 49.1392 336.09 51.2699C332.586 53.3532 329.84 56.1704 327.852 59.7216C325.863 63.2254 324.845 67.1316 324.798 71.4403V89.267C324.798 94.6647 325.792 99.3286 327.781 103.258C329.817 107.188 332.681 110.219 336.374 112.349C340.067 114.48 344.447 115.545 349.513 115.545C352.875 115.545 355.953 115.072 358.746 114.125C361.54 113.178 363.931 111.758 365.92 109.864C367.908 107.97 369.424 105.65 370.465 102.903L398.448 104.75C397.028 111.473 394.116 117.345 389.712 122.364C385.356 127.335 379.722 131.218 372.809 134.011C365.943 136.758 358.013 138.131 349.016 138.131Z" fill="#EE28FF"/>
<path d="M589.162 26.9091V49.6363H523.466V26.9091H589.162ZM538.381 0.772705H568.636V102.477C568.636 105.271 569.062 107.449 569.915 109.011C570.767 110.526 571.951 111.592 573.466 112.207C575.028 112.823 576.828 113.131 578.864 113.131C580.284 113.131 581.705 113.012 583.125 112.776C584.545 112.491 585.634 112.278 586.392 112.136L591.151 134.651C589.635 135.124 587.505 135.669 584.758 136.284C582.012 136.947 578.674 137.349 574.744 137.491C567.453 137.776 561.061 136.805 555.568 134.58C550.123 132.354 545.885 128.898 542.855 124.21C539.825 119.523 538.333 113.604 538.381 106.455V0.772705Z" fill="#EE28FF"/>
<path d="M608.871 136V26.9091H638.203V45.9432H639.339C641.328 39.1723 644.666 34.0587 649.354 30.6023C654.041 27.0985 659.439 25.3466 665.547 25.3466C667.062 25.3466 668.696 25.4413 670.447 25.6307C672.199 25.8201 673.738 26.0805 675.064 26.4119V53.2585C673.643 52.8324 671.678 52.4536 669.169 52.1221C666.66 51.7907 664.363 51.625 662.28 51.625C657.829 51.625 653.852 52.5956 650.348 54.5369C646.892 56.4308 644.145 59.0824 642.109 62.4915C640.121 65.9005 639.126 69.8305 639.126 74.2812V136H608.871Z" fill="#EE28FF"/>
<path d="M734.918 138.131C723.886 138.131 714.345 135.787 706.296 131.099C698.294 126.365 692.115 119.783 687.759 111.355C683.403 102.88 681.225 93.0549 681.225 81.8807C681.225 70.6117 683.403 60.7632 687.759 52.3352C692.115 43.8598 698.294 37.2784 706.296 32.5909C714.345 27.856 723.886 25.4886 734.918 25.4886C745.951 25.4886 755.468 27.856 763.469 32.5909C771.519 37.2784 777.721 43.8598 782.077 52.3352C786.433 60.7632 788.612 70.6117 788.612 81.8807C788.612 93.0549 786.433 102.88 782.077 111.355C777.721 119.783 771.519 126.365 763.469 131.099C755.468 135.787 745.951 138.131 734.918 138.131ZM735.06 114.693C740.079 114.693 744.27 113.273 747.631 110.432C750.993 107.544 753.526 103.614 755.231 98.642C756.983 93.6704 757.859 88.0123 757.859 81.6676C757.859 75.3229 756.983 69.6648 755.231 64.6932C753.526 59.7216 750.993 55.7916 747.631 52.9034C744.27 50.0151 740.079 48.571 735.06 48.571C729.994 48.571 725.733 50.0151 722.276 52.9034C718.867 55.7916 716.287 59.7216 714.535 64.6932C712.83 69.6648 711.978 75.3229 711.978 81.6676C711.978 88.0123 712.83 93.6704 714.535 98.642C716.287 103.614 718.867 107.544 722.276 110.432C725.733 113.273 729.994 114.693 735.06 114.693Z" fill="#EE28FF"/>
<path d="M439.386 135.597C439.386 135.597 449.222 137.5 450.04 123C450.858 108.5 441.091 107.898 441.091 107.898C436 107.898 438.409 113.5 433.358 111.5C428.307 109.5 428.307 102.358 428.307 98.5C428.307 92 428.307 93.1486 428.307 89.6448C428.307 84.9573 429.301 81.0037 431.29 77.784C433.231 74.5643 435.835 72.9545 439.102 72.9545C441.706 72.9545 443.908 73.9962 445.707 76.0795C447.507 78.1628 448.951 81.7376 450.04 86.8039L454.017 106.548C456.195 117.154 459.699 125.062 464.528 130.27C469.358 135.478 475.703 138.082 483.562 138.082C490.712 138.082 496.986 135.975 502.384 131.761C507.781 127.595 511.995 121.866 515.026 114.574C518.009 107.33 519.5 98.9725 519.5 89.5028C519.5 75.0615 516.493 63.5558 510.48 54.9858C504.42 46.463 496.181 41.4678 485.764 40C485.764 40 475.75 35.0001 475.75 50.6534C475.75 66.3067 484.202 69.7585 484.202 69.7585C488.605 70.6581 492.572 64 496.358 69.7585C498.631 73.2149 497.696 84.1761 497.696 89.5738C497.696 94.8769 496.678 99.1382 494.642 102.358C492.559 105.625 489.884 107.282 486.616 107.33C483.87 107.282 481.621 106.122 479.869 103.849C478.07 101.577 476.697 98.0729 475.75 93.338L471.986 74.446C469.855 63.7926 466.162 55.8617 460.906 50.6534C455.651 45.4924 448.951 42.9119 440.807 42.9119C433.799 42.9119 427.762 44.8058 422.696 48.5937C417.63 52.4289 413.723 57.803 410.977 64.7159C408.231 71.6761 406.858 79.82 406.858 89.1477C406.858 102.926 409.77 113.769 415.594 121.676C421.418 129.631 429.348 134.271 439.386 135.597Z" fill="#EE28FF"/>
</svg>
