<svg width="42" height="43" viewBox="0 0 42 43" fill="none" xmlns="http://www.w3.org/2000/svg">
<path d="M21 0.5C9.408 0.5 0 9.908 0 21.5C0 33.092 9.408 42.5 21 42.5C32.592 42.5 42 33.092 42 21.5C42 9.908 32.592 0.5 21 0.5ZM21 8.9C25.053 8.9 28.35 12.197 28.35 16.25C28.35 20.303 25.053 23.6 21 23.6C16.947 23.6 13.65 20.303 13.65 16.25C13.65 12.197 16.947 8.9 21 8.9ZM21 38.3C16.737 38.3 11.697 36.578 8.106 32.252C11.655 29.48 16.128 27.8 21 27.8C25.872 27.8 30.345 29.48 33.894 32.252C30.303 36.578 25.263 38.3 21 38.3Z" fill="#E1FF28"/>
</svg>
