<svg width="130" height="61" viewBox="0 0 130 61" fill="none" xmlns="http://www.w3.org/2000/svg">
<path d="M26.7779 21.4273C27.7884 18.3959 26.0889 17.2247 24.068 15.709C22.0471 14.1933 20.4854 14.4688 18.9927 14.5837C17.4999 14.6985 16.3057 14.3489 14.9738 15.2038C13.6418 16.0586 13.0203 16.117 12.3098 17.1328C11.6726 18.0439 11.4443 18.7309 11.4371 19.8427C11.4315 20.728 11.9653 22.0474 11.9653 22.0474C11.9653 22.0474 11.6209 23.9535 13.6418 24.4587C15.2034 30.7971 14.641 24.8032 15.3299 24.964C16.0189 25.1247 16.4895 24.4587 17.5 24.964C18.5104 25.4692 23.1035 26.6864 23.1035 26.6864C25.155 27.1457 27.0382 27.7581 28.7529 28.5236C30.4677 29.2891 31.9527 30.2307 33.2082 31.3483C34.4636 32.4659 35.4358 33.7826 36.1248 35.2983C36.829 36.814 37.1888 38.5517 37.2041 40.5114C37.1888 43.3897 36.4539 45.8853 34.9995 47.9981C33.5603 50.0956 31.4781 51.7261 28.7529 52.8897C26.043 54.0379 22.7743 54.6121 18.9468 54.6121C15.1498 54.6121 11.8429 54.0303 9.02579 52.8667C6.22403 51.7031 4.03468 49.9807 2.45773 47.6995C0.896095 45.403 0.0770016 42.563 0.00045077 39.1794C-0.0761001 35.7959 9.51571 37.6025 9.62288 39.1794C9.73005 40.7564 10.1817 42.0731 10.9778 43.1295C11.7893 44.1705 12.8686 44.959 14.2159 45.4949C15.5785 46.0154 17.1172 46.2757 18.8319 46.2757C20.5161 46.2757 21.9782 46.0307 23.2183 45.5408C24.4737 45.0509 25.4459 44.3696 26.1349 43.4969C26.8238 42.6242 27.1683 41.6214 27.1683 40.4885C27.1683 39.4321 26.8545 38.5441 26.2267 37.8245C25.6143 37.1049 24.711 36.4925 23.5168 35.9873C22.338 35.482 20.8912 35.0227 19.1764 34.6094L14.0552 33.3233C10.0898 32.3588 6.95892 30.8507 4.66239 28.7992C2.36587 26.7476 1.22526 23.9841 1.24057 20.5087C1.22526 17.661 1.98312 15.1731 3.51413 13.045C5.06046 10.9169 7.18091 9.25574 9.8755 8.06155C12.5701 6.86736 15.6321 6.27026 19.0616 6.27026C22.5523 6.27026 25.599 6.86736 28.2018 8.06155C30.8198 9.25574 32.856 10.9169 34.3105 13.045C35.765 15.1731 36.5152 17.6381 36.5611 20.4398C36.607 23.2416 25.7674 24.4587 26.7779 21.4273Z" fill="#EE28FF"/>
<path d="M48.3092 60.8826C47.3504 60.8826 46.4507 60.8056 45.6103 60.6517C44.7817 60.5097 44.0951 60.3262 43.5506 60.1013C43.0061 59.8764 44.3674 54.1828 45.2552 54.455C46.143 54.7273 46.942 54.8752 47.6522 54.8989C48.3743 54.9226 48.9957 54.7569 49.5165 54.4017C50.0492 54.0466 50.3688 53.7448 50.8127 52.5907C51.2566 51.4365 50.6292 53.0677 51.2566 51.4365C51.884 49.8054 40.9732 23.7377 41.4732 23.3826C41.9732 23.0275 49.399 23.2377 49.4278 23.3826C49.4565 23.5275 54.9732 43.0275 55.0741 43.411C55.1749 43.7945 55.3582 43.411 55.3582 43.411C55.3582 43.411 60.6589 23.7377 61.0577 23.3826C61.4565 23.0275 68.6746 22.7377 69.0656 23.3826C69.4565 24.0275 58.4654 53.6027 58.4654 53.6027C57.9564 55.0705 57.2639 56.349 56.388 57.438C55.5239 58.5388 54.429 59.3852 53.1032 59.977C51.7774 60.5807 50.1794 60.8826 48.3092 60.8826Z" fill="#EE28FF"/>
<path d="M80.5002 34.8883C80.5002 34.8883 80.8553 49.3106 80.5002 50.6553C80.1451 52 73.3024 52.3106 72.9363 50.6553C72.5701 49 71.916 23.7651 72.9363 23.3826C73.9565 23 79.3337 22.7651 80.1451 23.3826C80.9565 24 79.8962 28.1944 80.1451 28.1944C80.394 28.1944 80.4729 28.3887 80.4647 28.1944C80.4565 28 82.0805 25.3534 83.5009 24.4302C84.9214 23.495 86.6437 23.0275 88.6678 23.0275C90.5618 23.0275 92.213 23.4418 93.6217 24.2704C95.0303 25.099 96.1252 26.2827 96.9065 27.8215C97.6877 29.3485 98.0783 31.1714 98.0783 33.2902C98.0783 33.2902 98.7001 49.8106 98.0783 50.6553C97.4565 51.5 90.9565 51.5 90.5144 50.6553C90.0723 49.8106 90.5144 34.6397 90.5144 34.6397C90.5263 32.9706 90.1001 31.6686 89.236 30.7334C88.3719 29.7865 87.1823 29.313 85.6671 29.313C84.6491 29.313 83.7495 29.532 82.9683 29.9699C82.1988 30.4079 81.5951 31.0471 81.1572 31.8875C80.731 32.7161 80.5121 33.7164 80.5002 34.8883Z" fill="#EE28FF"/>
<path d="M116.362 51.188C113.569 51.188 111.166 50.5961 109.153 49.4124C107.153 48.2169 105.614 46.5597 104.537 44.4408C103.472 42.322 102.939 39.8835 102.939 37.1255C102.939 34.3319 103.478 31.8816 104.555 29.7746C105.644 27.6558 107.188 26.0045 109.189 24.8208C111.189 23.6252 113.569 23.0275 116.327 23.0275C118.706 23.0275 120.789 23.4595 122.577 24.3236C124.364 25.1877 125.779 26.401 126.82 27.9635C127.862 29.526 129.129 32.9356 128.543 33.4678C127.957 34 121.957 34 121.405 33.4678C120.853 32.9356 120.671 31.0116 119.807 30.183C118.955 29.3426 117.836 28.9223 116.451 28.9223C115.279 28.9223 114.255 29.2419 113.379 29.8811C112.515 30.5085 111.84 31.4259 111.355 32.6333C110.87 33.8407 110.627 35.3026 110.627 37.0189C110.627 38.759 110.864 40.2386 111.337 41.4579C111.823 42.6771 112.503 43.6063 113.379 44.2455C114.255 44.8847 115.279 45.2043 116.451 45.2043C117.315 45.2043 118.09 45.0267 118.777 44.6716C119.475 44.3165 120.05 43.8016 120.499 43.1269C120.961 42.4403 120.853 40.8177 121.405 40.6588C121.957 40.5 128.129 40.3177 128.543 40.6588C128.957 41 127.856 44.5769 126.838 46.1631C125.832 47.7374 124.441 48.9685 122.666 49.8563C120.89 50.7441 118.789 51.188 116.362 51.188Z" fill="#EE28FF"/>
</svg>
