<svg width="25" height="25" viewBox="0 0 25 25" fill="none" xmlns="http://www.w3.org/2000/svg">
<mask id="mask0_189_272" style="mask-type:alpha" maskUnits="userSpaceOnUse" x="0" y="0" width="25" height="25">
<rect x="0.0900879" y="0.579102" width="24" height="24" fill="#D9D9D9"/>
</mask>
<g mask="url(#mask0_189_272)">
<path d="M7.09009 21.5791C6.54009 21.5791 6.06925 21.3833 5.67759 20.9916C5.28592 20.5999 5.09009 20.1291 5.09009 19.5791V6.5791H4.09009V4.5791H9.09009V3.5791H15.0901V4.5791H20.0901V6.5791H19.0901V19.5791C19.0901 20.1291 18.8943 20.5999 18.5026 20.9916C18.1109 21.3833 17.6401 21.5791 17.0901 21.5791H7.09009ZM17.0901 6.5791H7.09009V19.5791H17.0901V6.5791ZM9.09009 17.5791H11.0901V8.5791H9.09009V17.5791ZM13.0901 17.5791H15.0901V8.5791H13.0901V17.5791Z" fill="#F72B2B"/>
</g>
</svg>
